# xmcd CD Database Entry
#
# Track frame offsets:
# 150
# 15040
# 27685
# 38860
# 48680
# 60472
# 71347
# 82750
# 94225
# 106437
# 119327
# 128537
# 139155
# 150897
# 162182
# 174490
# 187150
# 199440
# 211745
# 221915
# 232875
# 242690
# 253547
# 263902
# 278532
#
# Disc length: 3858 seconds
#
# Revision: 1
# Processed by: cddbd v1.4PL0 Copyright (c) Steve Scherf et al.
# Submitted via: tcd 2.0b
#
DISCID=560f1019
DTITLE=Various artists/The Golden Country Collection
DYEAR=1900
DGENRE=
TTITLE0=Tom Dooley
TTITLE1=Don't
TTITLE2=Young love
TTITLE3=Please help me I'm falling
TTITLE4=Sixteen tons
TTITLE5=Ballad of Davy Crockett
TTITLE6=A white sports coat
TTITLE7=Before the next teardrop falls
TTITLE8=I walk the line
TTITLE9=Ruby don't take your love to town
TTITLE10=Rawhide
TTITLE11=He'll have to go
TTITLE12=Let it be me
TTITLE13=Just out of reach
TTITLE14=Crazy arms
TTITLE15=North to Alaska
TTITLE16=Wasted days and wasted nights
TTITLE17=Reuben James
TTITLE18=Wear my ring around your neck
TTITLE19=Send me the pillow you dream on
TTITLE20=Ballad of a teenage queen
TTITLE21=Mona Lisa
TTITLE22=It's only make believe
TTITLE23=Ballad of one eyed Jack
TTITLE24=Excuse me
EXTD=
EXTT0=
EXTT1=
EXTT2=
EXTT3=
EXTT4=
EXTT5=
EXTT6=
EXTT7=
EXTT8=
EXTT9=
EXTT10=
EXTT11=
EXTT12=
EXTT13=
EXTT14=
EXTT15=
EXTT16=
EXTT17=
EXTT18=
EXTT19=
EXTT20=
EXTT21=
EXTT22=
EXTT23=
EXTT24=
PLAYORDER=
